<svg xmlns="http://www.w3.org/2000/svg" width="960" height="560" viewBox="0 0 960 560"><path d="M379.69 183H581.664c4.657 0 8.473 3.757 8.473 8.356v176.607c0 4.657-3.815 8.414-8.473 8.414H379.69c-4.537 0-8.356-3.757-8.356-8.414V191.356c0-4.599 3.819-8.356 8.356-8.356zm180.365 25.779a8.344 8.344 0 0 1 8.356 8.356c0 4.657-3.699 8.538-8.356 8.538-4.715 0-8.472-3.881-8.472-8.538 0-4.591 3.757-8.356 8.472-8.356zm-20.652 0c4.657 0 8.423 3.765 8.423 8.356 0 4.657-3.766 8.538-8.423 8.538s-8.414-3.881-8.414-8.538c0-4.591 3.757-8.356 8.414-8.356zm-20.643 0c4.649 0 8.473 3.765 8.473 8.356 0 4.657-3.823 8.538-8.473 8.538-4.541 0-8.356-3.881-8.356-8.538-.001-4.591 3.815-8.356 8.356-8.356zm-130.593 25.788h185.141v-34.796H388.167v34.796zm185.141 10.148H388.167V359.55h185.141V244.715z" fill="#c6c6c6"/></svg>