<?xml version="1.0" encoding="iso-8859-1"?>
<!-- Generator: Adobe Illustrator 16.0.0, SVG Export Plug-In . SVG Version: 6.00 Build 0)  -->
<!DOCTYPE svg PUBLIC "-//W3C//DTD SVG 1.1//EN" "http://www.w3.org/Graphics/SVG/1.1/DTD/svg11.dtd">
<svg version="1.1" id="&#x56FE;&#x5C42;_1" xmlns="http://www.w3.org/2000/svg" xmlns:xlink="http://www.w3.org/1999/xlink" x="0px"
	 y="0px" width="960px" height="560px" viewBox="0 0 960 560" style="enable-background:new 0 0 960 560;" xml:space="preserve">
<path style="fill:#C6C6C6;" d="M379.69,183h0.24h201.734c4.657,0,8.473,3.757,8.473,8.356v0.239v176.368
	c0,4.657-3.815,8.414-8.473,8.414h-0.115H379.69c-4.537,0-8.356-3.757-8.356-8.414v-0.182V191.356
	C371.334,186.757,375.153,183,379.69,183L379.69,183z M560.055,208.779L560.055,208.779c4.657,0,8.356,3.765,8.356,8.356
	c0,4.657-3.699,8.538-8.356,8.538c-4.715,0-8.472-3.881-8.472-8.538C551.583,212.544,555.34,208.779,560.055,208.779
	L560.055,208.779z M539.403,208.779L539.403,208.779c4.657,0,8.423,3.765,8.423,8.356c0,4.657-3.766,8.538-8.423,8.538
	s-8.414-3.881-8.414-8.538C530.989,212.544,534.746,208.779,539.403,208.779L539.403,208.779z M518.76,208.779L518.76,208.779
	c4.649,0,8.473,3.765,8.473,8.356c0,4.657-3.823,8.538-8.473,8.538c-4.541,0-8.356-3.881-8.356-8.538
	C510.403,212.544,514.219,208.779,518.76,208.779L518.76,208.779z M388.167,234.567L388.167,234.567h185.141v-34.796H388.167
	V234.567L388.167,234.567z M573.308,244.715L573.308,244.715H388.167V359.55h185.141V244.715L573.308,244.715z"/>
</svg>
